<?xml version="1.0" encoding="utf-8"?>
<svg viewBox="0 0 500 500" xmlns="http://www.w3.org/2000/svg">
  <path style="fill: rgb(223, 209, 184);" d="M 102.517 140.418 C 91.793 143.343 96.505 167.432 102.881 165.693 L 134.96 165.839 L 165.111 327.121 L 321.185 327.712 C 338.912 322.498 330.689 295.113 322.367 297.561 L 189.94 296.97 L 184.62 273.322 C 184.618 273.324 324.26 283.331 334.017 270.027 C 334.337 270.202 397.796 181.446 368.279 165.259 L 161.901 161.181 L 153.388 143.822 L 102.517 140.418 Z" transform="matrix(1, 0, 0, 1, 5.758772, -4.550983)"/>
  <ellipse style="fill: rgb(223, 209, 184);" cx="198.227" cy="326.954" rx="19.954" ry="19.954" transform="matrix(1, 0, 0, 1, 5.758772, -4.550983)"/>
  <ellipse style="fill: rgb(223, 209, 184);" cx="299.211" cy="327.138" rx="19.954" ry="19.954" transform="matrix(1, 0, 0, 1, 5.758772, -4.550983)"/>
</svg>